<?xml version="1.0" encoding="UTF-8"?>
<svg id="_₫B_1" data-name="₫B_1" xmlns="http://www.w3.org/2000/svg" version="1.1" viewBox="0 0 99 47.14">
  <defs>
    <style>
      .st0 {
        fill: #fff;
        fill-rule: evenodd;
      }

      .st1 {
        fill: #ff2442;
      }
    </style>
  </defs>
  <rect class="st1" x="0" y="0" width="99" height="47.14" rx="23.57" ry="23.57"/>
  <path class="st0" d="M83.34,25.05c-.24-1.27-.91-2.23-2.05-2.84-.78-.42-1.62-.61-2.51-.63-.17,0-.34,0-.51,0-.11,0-.12,0-.12-.11,0-.03,0-.07,0-.1,0-.89,0-2,0-2.9,0-.38-.02-.75-.07-1.12-.07-.52-.21-1.03-.43-1.51-.42-.89-1.06-1.56-1.92-2.02-.88-.48-1.83-.71-2.83-.73-.43,0-1.61,0-2.04,0-.2,0-.19,0-.19-.19,0-.33,0-1.01,0-1.4,0-.04,0-.07-.03-.09-.02-.02-.1-.02-.1-.02h-4.31s-.05,0-.07.02c-.02.02-.02.04-.02.07,0,.38,0,1.07,0,1.39,0,.05,0,.11,0,.16,0,.04-.03.06-.07.06-.05,0-.11,0-.16,0-.84,0-1.68,0-2.53,0-.05,0-.11,0-.16,0-.06,0-.08.02-.08.09,0,.05,0,.1,0,.14,0,1.36,0,2.72,0,4.07,0,.26-.01.23.23.23.86,0,1.73,0,2.59,0,.23,0,.2.36.2.36v3.07s0,.2,0,.2c0,0,.01.33-.17.33-.07,0-.21,0-.28,0-1.29,0-2.63,0-3.91,0-.19,0-.17.23-.17.23v3.9s0,.21,0,.21c0,0-.03.19.18.19,1.34,0,2.78,0,4.13,0,.23,0,.22-.02.22.22v1.9c0,2.5,0,4.78,0,7.28,0,.25-.02.23.23.23,1.35,0,2.7,0,4.06,0,.25,0,.23.02.23-.23,0-1.56,0-3.13,0-4.69v-4.45c0-.05,0-.11,0-.16,0-.08.02-.1.09-.1.05,0,.11,0,.16,0,.88,0,2.5,0,3.39,0,1.01,0,2.02,0,3.04,0,.28,0,.54.05.79.17.49.23.74.63.78,1.16,0,.13,0,.26,0,.39,0,1.33,0,1.65,0,2.99,0,.74-.3,1.04-.93,1.04-1.33,0-1.94,0-3.27,0-.06,0-.12,0-.18,0-.06,0-.08.02-.08.09,0,.06,1.33,3.08,1.6,3.68,0,.01,0,.02.01.03.02.04.06.07.11.07.02,0,.03,0,.05,0,.26,0,.84.01,1.4,0,.42,0,1.47.01,1.89-.03.39-.04.78-.1,1.16-.22,1.67-.51,2.76-1.99,2.76-3.74,0-1.95,0-3.69,0-5.64,0-.36-.02-.72-.09-1.08ZM73.72,21.51s-.02.06-.06.07c-.04,0-.08,0-.12,0-.66,0-2.05,0-2.71,0-.03,0-.07,0-.1,0-.04,0-.06-.03-.06-.07,0-.05,0-.11,0-.16l-.03-3.55c0-.2-.02-.2.2-.2.45,0,1.63,0,2.08,0,.12,0,.23,0,.34.04.28.09.44.29.47.58,0,.05,0,.1,0,.14,0,.93,0,2.08,0,3.02,0,.04,0,.08,0,.12ZM61.88,31.28s-.03-.06-.07-.06c-.06,0-.12,0-.18,0h-3.83s-.09,0-.14,0c-.14,0-.14,0-.14-.14,0-.04,0-.08,0-.12v-13.14c0-.21-.01-.2.2-.2.04,0,1.62,0,2.44,0,.22,0,.21.01.21-.21,0-1.37,0-2.74,0-4.12,0-.23.02-.22-.22-.22-3.36,0-6.57,0-9.92,0-.18,0-.21-.02-.21.21,0,1.37,0,2.74,0,4.12,0,.23-.02.22.22.22.86,0,1.57,0,2.42,0,.21,0,.2-.01.2.2,0,.01,0,.03,0,.04,0,4.37,0,8.75,0,13.12,0,.27.02.24-.24.24-1.05,0-3.14,0-3.7,0-.14,0-.17.09-.17.09l-1.98,4.32s-.04.07-.02.1c.02.03.04.02.16.02.72,0,3.26,0,4.8,0h9.88c.06,0,.12,0,.18,0,.08,0,.1-.02.1-.09,0-.03,0-.07,0-.1,0-1.39,0-2.77,0-4.16,0-.04,0-.08,0-.12ZM28.47,11.64h-4.28c-.05,0-.09.04-.09.09,0,1.08-.03,11.52-.03,16.79,0,.88,0,1.77,0,2.65,0,.82-.76.74-.79.74h-1.95s-.1,0-.14,0c-.11,0-.12.01-.12.13,0,.1,1.32,3.03,1.58,3.59.03.06.08.1.15.1.44,0,2.17.02,2.66-.04.43-.06.85-.17,1.24-.38.85-.45,1.39-1.19,1.69-2.18.15-.49.21-1.01.21-1.52,0-3.26,0-6.52,0-9.79,0-3.12-.02-9.29-.02-10.12,0-.05-.04-.09-.09-.09ZM48.12,25.69h-2.47c-.26,0-.43-.27-.33-.51l3.34-7.47s-.01-.1-.07-.1h-3.73c-.31,0-.51-.32-.38-.6l2.48-5.56s-.01-.1-.07-.1c-.57,0-3.2,0-4.42,0-.03,0-.05.02-.07.04l-2.63,5.89c-.27.54-.52,1.08-.76,1.63-.14.34-.28.68-.38,1.04-.05.18-.07.36-.06.55.04.47.25.83.65,1.07.12.07.24.13.37.17.3.11.62.16.94.16.67,0,1,0,1.67,0,.07,0-1.66,3.79-1.97,4.52-.15.36-.29.72-.4,1.09-.05.16-.07.32-.06.49.02.5.24.88.65,1.13.12.08.25.14.39.18.31.11.63.16.96.16,1.41,0,3.17,0,4.58,0,.02,0,.08,0,.13,0,.03,0,.05-.02.07-.04l1.63-3.64s-.01-.1-.07-.1ZM37.18,28.29c-.29-.62-.35-1.04-.38-1.73-.01-.27-.04-.54-.06-.82-.03-.42-.07-.84-.1-1.26-.03-.46-.07-.91-.1-1.37-.03-.45-.07-.9-.1-1.35-.03-.44-.07-.87-.1-1.31-.03-.41-.07-.83-.1-1.24-.03-.46-.07-.91-.1-1.37,0-.08-.01-.2-.03-.23-.01-.03-.15-.02-.22-.02-1.36,0-2.72,0-4.08,0-.04,0-.08,0-.12,0-.08,0-.09.02-.09.1.02.28.04.56.06.84.05.61.1,1.22.15,1.84.04.48.07.95.11,1.43.05.65.1,1.31.15,1.96.06.74.11,1.48.17,2.22.02.31.05.63.08.94.09.7.22,1.4.4,2.09.24.95.56,1.88.98,2.77.29.61.63,1.19,1.05,1.72.04.05.1.15.14.14.02,0,.02-.02.04-.05.27-.54,2.11-4.71,2.24-4.97.1-.2.08-.16,0-.32ZM20.96,17.6s-.08,0-.12,0c-1.36,0-2.72,0-4.08,0-.05,0-.14,0-.19,0-.02,0-.03.01-.03.02,0,.02-.02.15-.02.23-.03.46-.07.91-.1,1.37-.03.42-.07.83-.1,1.24-.03.44-.07.87-.1,1.31-.03.45-.07.9-.1,1.35-.03.46-.07.91-.1,1.37-.03.42-.07.84-.1,1.26-.02.27-.05.54-.06.82-.03.68-.1,1.11-.38,1.73-.07.16-.09.12,0,.32.13.26,1.93,4.33,2.23,4.95.02.05.03.06.05.06.02,0,.09-.07.13-.12.42-.53.76-1.11,1.05-1.72.43-.89.74-1.82.98-2.77.17-.69.31-1.38.4-2.09.04-.31.06-.62.08-.94.06-.74.11-1.48.17-2.22.05-.65.1,1.31.15,1.96.04.48.07.95.11,1.43.05.61.1,1.22.15,1.84.02.28.04.56.06.84,0-.08,0-.09-.09-.1ZM46.29,31.2c-.57,0-3.84.01-4.78,0-.71,0-1.49-.13-2.17-.36-.04-.01-.07,0-.09.04l-2.03,4.41s0,.07.03.09c.31.17.95.35,1.4.35.34,0,.31.01.65.01,1.32,0,4.58,0,4.96-.01.03,0,.05-.02.07-.04l2.02-4.4s-.01-.1-.07-.1ZM78.97,17.56s.09,0,.14,0c.35,0,.71,0,1.06,0h0c.33,0,.67,0,1,0,.16,0,.33-.02.48-.05,1.23-.27,2-1.48,1.73-2.71-.24-1.1-1.28-1.92-2.51-1.76-1.13.15-1.95,1.1-1.96,2.26,0,.7,0,1.39,0,2.09,0,.04,0,.08,0,.12,0,.03.02.05.05.05z"/>
</svg>

